<?xml version="1.0" encoding="UTF-8"?>
<svg id="uuid-5292220e-1da1-450a-a612-654a4613a9d2" data-name="Layer 1" xmlns="http://www.w3.org/2000/svg" viewBox="0 0 273.18 98.44">
  <g style="isolation: isolate;">
    <path d="M28.23,73.83h-10.55c-9.38,0-12.81-4.69-10.3-14.06l6.61-24.61c2.51-9.38,8.45-14.06,17.82-14.06h28.12l-16.95,63.28c-2.53,9.38-8.48,14.06-17.86,14.06H11.07c-9.37,0-12.8-4.69-10.27-14.06l1.86-7.03H20.25l-.95,3.52h7.03l1.9-7.03Zm-2.32-17.58h7.03l4.71-17.58h-7.03l-4.71,17.58Z" style="fill: currentColor;"/>
  </g>
  <g style="isolation: isolate;">
    <path d="M92.39,77.34h-28.12c-9.38,0-12.81-4.69-10.3-14.06l7.56-28.12c2.51-9.38,8.45-14.06,17.82-14.06h28.12l-15.08,56.25Zm-7.21-38.67h-7.03l-5.66,21.09h7.03l5.66-21.09Z" style="fill: currentColor;"/>
  </g>
  <g style="isolation: isolate;">
    <path d="M141.47,77.34h-17.58l10.37-38.67h-7.03l-10.37,38.67h-17.58l15.08-56.25h28.12c9.38,0,12.81,4.69,10.3,14.06l-11.32,42.19Z" style="fill: currentColor;"/>
  </g>
  <g style="isolation: isolate;">
    <path d="M172.34,73.83h-10.55c-9.38,0-12.81-4.69-10.3-14.06l6.61-24.61c2.51-9.38,8.45-14.06,17.82-14.06h28.12l-16.95,63.28c-2.53,9.38-8.48,14.06-17.86,14.06h-14.06c-9.37,0-12.8-4.69-10.27-14.06l1.86-7.03h17.58l-.95,3.52h7.03l1.9-7.03Zm-2.32-17.58h7.03l4.71-17.58h-7.03l-4.71,17.58Z" style="fill: currentColor;"/>
  </g>
  <g style="isolation: isolate;">
    <path d="M228.58,21.09l-15.08,56.25h-17.58l15.08-56.25h17.58Zm2.41-18.53c1.25,1.71,1.55,3.79,.9,6.22-.66,2.44-2.07,4.51-4.24,6.22-2.17,1.71-4.47,2.57-6.91,2.57s-4.28-.86-5.54-2.57c-1.25-1.71-1.55-3.79-.9-6.22,.66-2.44,2.07-4.51,4.24-6.22,2.17-1.71,4.47-2.57,6.91-2.57s4.28,.86,5.54,2.57Z" style="fill: currentColor;"/>
  </g>
  <g style="isolation: isolate;">
    <path d="M222.64,63.28l7.56-28.12c2.51-9.38,8.45-14.06,17.82-14.06h14.06c9.37,0,12.81,4.69,10.3,14.06l-7.56,28.12c-2.51,9.38-8.45,14.06-17.82,14.06h-14.06c-9.38,0-12.81-4.69-10.3-14.06Zm24.19-24.61l-5.66,21.09h7.03l5.66-21.09h-7.03Z" style="fill: currentColor;"/>
  </g>
</svg>