<?xml version="1.0" encoding="UTF-8"?>
<svg id="uuid-d71d67c0-b9bb-46c9-8dc0-a754f433954d" data-name="Layer 2" xmlns="http://www.w3.org/2000/svg" viewBox="0 0 181.74 41.35">
  <g id="uuid-90ede010-e5e7-41de-af03-1521a7e79366" data-name="Layer 1">
    <g>
      <path d="M11.86,31.01H7.43c-3.94,0-5.38-1.97-4.33-5.91l2.78-10.34c1.05-3.94,3.55-5.91,7.49-5.91h11.81l-7.12,26.58c-1.06,3.94-3.56,5.91-7.5,5.91H4.65c-3.94,0-5.38-1.97-4.31-5.91l.78-2.95h7.38l-.4,1.48h2.95l.8-2.95Zm-.97-7.38h2.95l1.98-7.38h-2.95l-1.98,7.38Z" style="fill: #c26cab;"/>
      <path d="M38.81,32.49h-11.81c-3.94,0-5.38-1.97-4.33-5.91l3.17-11.81c1.05-3.94,3.55-5.91,7.49-5.91h11.81l-6.33,23.63Zm-3.03-16.24h-2.95l-2.38,8.86h2.95l2.38-8.86Z" style="fill: #c26cab;"/>
      <path d="M59.42,32.49h-7.38l4.36-16.24h-2.95l-4.36,16.24h-7.38l6.33-23.63h11.81c3.94,0,5.38,1.97,4.33,5.91l-4.75,17.72Z" style="fill: #c26cab;"/>
      <path d="M72.39,31.01h-4.43c-3.94,0-5.38-1.97-4.33-5.91l2.78-10.34c1.05-3.94,3.55-5.91,7.49-5.91h11.81l-7.12,26.58c-1.06,3.94-3.56,5.91-7.5,5.91h-5.91c-3.94,0-5.38-1.97-4.31-5.91l.78-2.95h7.38l-.4,1.48h2.95l.8-2.95Zm-.97-7.38h2.95l1.98-7.38h-2.95l-1.98,7.38Z" style="fill: #c26cab;"/>
      <path d="M96.01,8.86l-6.34,23.63h-7.38l6.34-23.63h7.38Zm1.01-7.78c.53,.72,.65,1.59,.38,2.61-.28,1.02-.87,1.9-1.78,2.61-.91,.72-1.88,1.08-2.9,1.08s-1.8-.36-2.33-1.08c-.53-.72-.65-1.59-.38-2.61,.28-1.02,.87-1.9,1.78-2.61,.91-.72,1.88-1.08,2.9-1.08s1.8,.36,2.33,1.08Z" style="fill: #c26cab;"/>
      <path d="M93.52,26.58l3.17-11.81c1.05-3.94,3.55-5.91,7.49-5.91h5.91c3.94,0,5.38,1.97,4.33,5.91l-3.17,11.81c-1.05,3.94-3.55,5.91-7.49,5.91h-5.91c-3.94,0-5.38-1.97-4.33-5.91Zm10.16-10.34l-2.38,8.86h2.95l2.38-8.86h-2.95Z" style="fill: #c26cab;"/>
      <path d="M119.13,26.18c.53,.72,.65,1.59,.38,2.61-.28,1.02-.87,1.9-1.78,2.61-.91,.72-1.88,1.08-2.9,1.08s-1.8-.36-2.33-1.08c-.53-.72-.65-1.59-.38-2.61,.28-1.02,.87-1.9,1.78-2.61,.91-.72,1.88-1.08,2.9-1.08s1.8,.36,2.33,1.08Z" style="fill: #c26cab;"/>
      <path d="M132.21,31.01h-4.43l-2.38,8.86h-7.38l8.31-31.01h11.81c3.94,0,5.38,1.97,4.33,5.91l-2.78,10.34c-1.05,3.94-3.55,5.91-7.49,5.91Zm.5-7.38l1.98-7.38h-2.95l-1.98,7.38h2.95Z" style="fill: #c26cab;"/>
      <path d="M153.85,19.2l.8-2.95h-2.95l-4.36,16.24h-7.38l6.33-23.63h11.81c3.94,0,5.38,1.97,4.33,5.91l-1.2,4.43h-7.38Z" style="fill: #c26cab;"/>
      <path d="M160.52,26.58l3.17-11.81c1.05-3.94,3.55-5.91,7.49-5.91h5.91c3.94,0,5.38,1.97,4.33,5.91l-3.17,11.81c-1.05,3.94-3.55,5.91-7.49,5.91h-5.91c-3.94,0-5.38-1.97-4.33-5.91Zm10.16-10.34l-2.38,8.86h2.95l2.38-8.86h-2.95Z" style="fill: #c26cab;"/>
    </g>
  </g>
</svg>